<?xml version="1.0" encoding="UTF-8" standalone="no"?>
<!-- Created with Inkscape (http://www.inkscape.org/) -->

<svg
   width="1000.0001"
   height="1000.0001"
   viewBox="0 0 264.58335 264.58335"
   version="1.1"
   id="svg1"
   xml:space="preserve"
   inkscape:version="1.4 (86a8ad7, 2024-10-11)"
   sodipodi:docname="TinyBitLogo.svg"
   inkscape:export-filename="TinyBitLogo.png"
   inkscape:export-xdpi="96"
   inkscape:export-ydpi="96"
   xmlns:inkscape="http://www.inkscape.org/namespaces/inkscape"
   xmlns:sodipodi="http://sodipodi.sourceforge.net/DTD/sodipodi-0.dtd"
   xmlns="http://www.w3.org/2000/svg"
   xmlns:svg="http://www.w3.org/2000/svg"><sodipodi:namedview
     id="namedview1"
     pagecolor="#ffffff"
     bordercolor="#000000"
     borderopacity="0.25"
     inkscape:showpageshadow="2"
     inkscape:pageopacity="0.0"
     inkscape:pagecheckerboard="0"
     inkscape:deskcolor="#d1d1d1"
     inkscape:document-units="px"
     inkscape:zoom="0.50835204"
     inkscape:cx="692.43353"
     inkscape:cy="541.94727"
     inkscape:window-width="1920"
     inkscape:window-height="1009"
     inkscape:window-x="-8"
     inkscape:window-y="-8"
     inkscape:window-maximized="1"
     inkscape:current-layer="layer1"><inkscape:page
       x="0"
       y="0"
       width="264.58334"
       height="264.58334"
       id="page2"
       margin="0"
       bleed="0" /></sodipodi:namedview><defs
     id="defs1" /><g
     inkscape:label="Capa 1"
     inkscape:groupmode="layer"
     id="layer1"><rect
       style="display:none;fill:#252430;fill-opacity:1;stroke-width:25.7381;stroke-linecap:square;paint-order:fill markers stroke"
       id="rect1"
       width="264.58334"
       height="264.58334"
       x="0"
       y="0"
       ry="60.374825" /><path
       style="fill:#ffffff;stroke-width:2.88035;stroke:#000000;stroke-opacity:1;fill-opacity:1"
       d="m 93.618631,247.96341 -1.951419,-2.31914 0.23187,-13.37343 c 0.1397,-8.05345 -0.0538,-13.55005 -0.48646,-13.81745 -0.39513,-0.24424 -2.4629,-0.36317 -4.59506,-0.26442 -7.755088,0.35924 -13.492857,-2.74531 -16.923787,-9.15703 -1.51358,-2.82853 -1.64842,-4.24324 -1.86848,-19.60045 l -0.237059,-16.5519 -5.34675,-2.77138 c -6.259489,-3.2445 -14.013197,-10.66287 -17.048547,-16.3112 -4.266069,-7.93859 -4.305529,-8.46742 -4.305529,-57.750727 0,-30.832324 0.26819,-46.478321 0.84248,-49.16826 0.79632,-3.729299 1.49975,-4.613489 12.843068,-16.143286 6.600339,-6.708849 13.490067,-13.158278 15.310577,-14.332087 l 3.30995,-2.1342 h 58.701365 c 58.36525,0 58.71927,0.008 61.83591,1.58152 4.37977,2.209769 25.33959,23.783934 27.71932,28.531773 l 1.84584,3.68268 v 46.974621 c 0,51.865146 -0.0153,52.044166 -4.68479,59.830966 -3.36505,5.60999 -11.12227,12.66974 -17.10817,15.56996 l -5.00989,2.42735 -0.005,15.81349 c -0.005,14.99319 -0.0973,16.0069 -1.74336,19.54155 -2.08077,4.46827 -6.24227,8.3293 -9.58746,8.89518 -1.3396,0.22668 -4.61336,0.49441 -7.27503,0.59512 l -4.83939,0.18319 -0.37228,14.77179 c -0.48395,19.20348 1.26316,17.61496 -19.37394,17.61496 h -15.4867 l -1.9275,-2.29066 -1.92751,-2.29069 v -14.4611 c 0,-13.96473 -0.051,-14.46109 -1.48904,-14.46109 -1.43406,0 -1.48906,0.49636 -1.48906,13.43839 0,20.49488 0.44061,20.06515 -20.57389,20.06515 H 95.571701 Z m 27.877429,-23.95374 c 0.30575,-13.32413 0.57176,-16.3477 1.48904,-16.92654 0.61422,-0.38758 5.00157,-0.70984 9.74955,-0.7161 7.3867,-0.008 8.80841,0.1826 9.84943,1.33296 1.02941,1.13751 1.24766,3.74387 1.41831,16.93791 l 0.20165,15.59356 h 9.30651 9.30657 l 0.37226,-23.82474 0.37228,-23.82479 h 4.46714 4.46712 l 0.41585,5.87203 c 0.36978,5.22131 0.64249,6.06695 2.46123,7.63137 2.51136,2.16012 6.33207,2.3071 8.76671,0.33715 1.75167,-1.4173 1.75892,-1.4914 2.12991,-21.74453 l 0.37229,-20.32232 4.62965,-0.93628 c 8.80564,-1.78079 15.7349,-6.89268 19.36601,-14.28672 l 2.06268,-4.20022 0.22725,-46.532757 c 0.14769,-30.236964 -0.0398,-47.448521 -0.53528,-49.147821 -0.5489,-1.882399 -3.86158,-5.689428 -11.82322,-13.587576 L 189.50831,24.691828 h -56.37884 c -47.471987,0 -56.696476,0.16812 -58.389306,1.06533 -2.844019,1.50709 -20.604416,19.668985 -22.038056,22.536295 -1.05341,2.106799 -1.19137,7.686358 -1.19137,48.17999 0,44.373847 0.0475,45.924327 1.52906,49.884077 1.81862,4.86069 6.985439,10.85839 11.772428,13.66568 1.89769,1.11286 5.628039,2.57189 8.289709,3.24233 l 4.839419,1.21897 0.18207,19.26037 c 0.19153,20.28556 0.43001,21.80252 3.657489,23.27305 5.482329,2.49791 9.549729,-0.35773 10.306079,-7.23571 0.25549,-2.3222 0.530699,-4.71781 0.611849,-5.32359 0.21864,-1.63211 3.82804,-2.67699 6.275429,-1.81663 l 2.04745,0.71977 0.18837,22.69035 c 0.10342,12.47966 0.34817,23.11915 0.54362,23.64331 0.26903,0.72137 2.66587,0.90233 9.86276,0.74452 l 9.50747,-0.20855 z M 76.690964,150.18958 c -4.704889,-1.22274 -8.291639,-4.12019 -10.399648,-8.40115 l -1.7514,-3.55672 V 99.516443 c 0,-38.496903 0.008,-38.732573 1.64254,-41.785832 1.989269,-3.718739 5.174039,-6.511739 8.948028,-7.847139 2.24827,-0.79556 13.838728,-0.99465 57.905716,-0.99465 55.02651,0 55.09848,0.001 58.07291,1.607 4.06836,2.19532 6.79646,5.239599 8.16086,9.106608 0.97212,2.75526 1.1457,8.832499 1.1457,40.107383 0,25.465167 -0.26269,37.736937 -0.84985,39.696527 -1.13108,3.77528 -4.54594,7.79844 -8.34258,9.82869 l -3.09224,1.65358 -53.97802,0.10307 c -40.263739,0.0769 -54.863226,-0.12677 -57.462016,-0.80221 z m 94.162786,-28.46323 c 1.14419,-0.58479 2.73435,-2.13587 3.53369,-3.44683 1.32777,-2.17761 1.45336,-3.83115 1.45336,-19.135377 0,-15.488147 -0.11311,-16.937537 -1.50166,-19.214736 -1.51763,-2.48921 -6.4615,-5.321769 -9.28839,-5.321769 -2.8269,0 -7.77079,2.832559 -9.28839,5.321769 -1.38707,2.275079 -1.50189,3.729829 -1.50443,19.065606 -0.004,20.001027 0.35872,21.182887 7.24927,23.662947 2.99604,1.07831 5.99974,0.77892 9.34655,-0.93161 z m -63.2887,-1.68071 3.13538,-2.9233 0.20999,-16.99272 c 0.24222,-19.602194 -0.0538,-20.808123 -5.87238,-23.913543 -5.71454,-3.049919 -12.109609,-0.74752 -14.882468,5.358159 -1.19986,2.642 -1.38593,5.001059 -1.38593,17.569907 0,12.726567 0.17628,14.906847 1.42939,17.667097 1.89451,4.17337 5.202279,6.15133 10.293028,6.15494 3.55458,0.004 4.24253,-0.28171 7.07295,-2.92054 z"
       id="path1"
       sodipodi:nodetypes="ccssssscsssssscscscssscsssccsscccssssccsscsscccccccsssscsscssscssssssscssssscssscssscssssssssscssssssssscssccssssssc" /><path
       style="fill:#000000;fill-opacity:1;stroke:#000000;stroke-width:35.4085;stroke-linecap:square;stroke-opacity:1;paint-order:fill markers stroke"
       d="m 389.80429,866.21014 c -0.7117,-19.64814 -1.294,-59.36768 -1.294,-88.26569 v -52.54179 l -8.85259,-2.47858 c -11.53151,-3.22861 -25.85007,-1.58003 -30.99925,3.56916 -2.92058,2.92059 -4.66144,8.79426 -6.43969,21.72754 -3.6513,26.55614 -11.97891,35.40179 -27.30134,28.99967 -11.88378,-4.96536 -11.87237,-4.88841 -12.63151,-85.18807 -0.4951,-52.37086 -1.33973,-73.69419 -2.96977,-74.97441 -1.25284,-0.98396 -8.70109,-3.33446 -16.55167,-5.22331 -29.28351,-7.04564 -51.2075,-21.69284 -67.03402,-44.78475 -13.99684,-20.42228 -13.11496,-6.89561 -13.11496,-201.16174 0,-165.70836 0.19192,-175.42729 3.5869,-181.65028 5.0824,-9.31601 73.89058,-78.339 81.00016,-81.25303 4.49849,-1.84382 55.71345,-2.60826 215.43647,-3.215608 l 209.53503,-0.796763 35.05112,34.975891 c 19.27812,19.23674 38.29464,38.93396 42.25896,43.77158 l 7.20786,8.79569 0.52226,179.82908 0.52228,179.82906 -7.19221,13.68677 c -14.58894,27.76283 -39.08256,45.17382 -73.27243,52.08484 l -17.95336,3.62902 -0.0907,9.90602 c -0.0499,5.44832 -0.83654,40.26726 -1.74812,77.37544 -1.48135,60.30319 -2.02645,67.87725 -5.13201,71.30885 -5.10648,5.64261 -18.49858,5.22593 -24.97592,-0.77706 -5.33312,-4.94258 -6.42083,-9.57323 -8.50342,-36.20168 l -1.26926,-16.22891 h -22.18795 c -21.34684,0 -22.2329,0.16777 -23.37408,4.42606 -0.65238,2.43434 -1.20074,26.5564 -1.21856,53.60459 -0.0178,27.04818 -0.61249,65.77626 -1.32147,86.0624 l -1.28903,36.88389 H 579.9955 551.78298 l -0.14136,-15.24534 c -0.0777,-8.38494 -0.78463,-33.93933 -1.57086,-56.78755 -2.003,-58.20927 -0.34389,-56.47406 -53.05292,-55.48667 -32.51111,0.60903 -34.27634,0.84439 -37.6551,5.02075 -4.12144,5.09431 -5.22125,17.57566 -7.11074,80.69707 l -1.2513,41.80174 H 421.0495 391.09829 Z M 721.28368,572.27246 c 13.50068,-6.84133 28.46443,-21.20021 34.63702,-33.23695 4.70463,-9.17418 5.18898,-12.6655 6.82783,-49.21747 2.35427,-52.5083 0.51407,-250.76033 -2.44073,-262.94969 -4.46183,-18.40619 -24.15498,-39.12276 -42.92773,-45.15858 -9.29653,-2.98903 -318.52523,-4.7182 -386.90043,-2.16352 -45.08955,1.68468 -47.65697,1.99168 -57.12605,6.83091 -10.72892,5.48309 -24.10328,18.7276 -29.55288,29.26598 -5.43525,10.5106 -6.52443,39.92115 -6.64673,179.47679 l -0.11352,129.55594 6.00098,11.25899 c 8.96523,16.82049 15.97252,24.26563 29.75183,31.61087 11.6101,6.18892 14.08648,6.71755 37.03139,7.90513 13.5241,0.69999 109.37787,1.41497 213.00838,1.58882 l 188.41913,0.31612 z"
       id="path3"
       transform="scale(0.26458332)" /><path
       style="fill:#000000;fill-opacity:1;stroke:#000000;stroke-width:35.4085;stroke-linecap:square;stroke-opacity:1;paint-order:fill markers stroke"
       d="m 361.26389,454.02301 c -10.82403,-5.33304 -16.38542,-15.91782 -18.17045,-34.58312 -1.98872,-20.79523 -1.98872,-68.60394 0,-89.39916 1.74275,-18.22325 7.32041,-29.14988 18.4474,-36.13846 14.62927,-9.18826 42.5205,0.10988 48.00519,16.00358 1.61264,4.67318 2.38266,25.96996 2.45892,68.00777 l 0.11103,61.20396 -9.75143,9.12132 c -9.48107,8.86843 -10.09463,9.12008 -22.13033,9.07653 -7.44874,-0.027 -15.00408,-1.33823 -18.97033,-3.29242 z"
       id="path4"
       transform="scale(0.26458332)" /><path
       style="fill:#000000;fill-opacity:1;stroke:#000000;stroke-width:35.4085;stroke-linecap:square;stroke-opacity:1;paint-order:fill markers stroke"
       d="m 606.86291,454.82021 c -15.284,-7.50201 -16.40897,-11.8866 -17.36709,-67.68921 -1.06741,-62.16773 0.15191,-75.48603 7.69778,-84.08029 7.13795,-8.12968 23.89627,-15.64876 31.04887,-13.93093 8.50404,2.04241 23.60105,13.3607 26.2811,19.70307 1.84272,4.36081 2.50143,21.9782 2.50143,66.90103 0,69.58368 -0.16251,70.35907 -16.56381,79.03229 -10.85163,5.73848 -21.99434,5.75972 -33.59828,0.064 z"
       id="path5"
       transform="scale(0.26458332)" /></g></svg>
