<?xml version="1.0" encoding="UTF-8" standalone="no"?>
<!-- Created with Inkscape (http://www.inkscape.org/) -->

<svg
   width="107.19646mm"
   height="138.71788mm"
   viewBox="0 0 107.19646 138.71788"
   version="1.1"
   id="svg1"
   xmlns="http://www.w3.org/2000/svg"
   xmlns:svg="http://www.w3.org/2000/svg">
  <defs
     id="defs1" />
  <g
     id="layer1"
     transform="translate(-41.010414,-74.083332)">
    <path
       style="fill:#ffffff;stroke-width:1.6927"
       d="m 71.881561,211.41946 -1.1468,-1.3629 0.13627,-7.85919 c 0.0821,-4.7328 -0.0316,-7.963 -0.28588,-8.12014 -0.23221,-0.14354 -1.44738,-0.21343 -2.70039,-0.15539 -4.55745,0.21111 -7.92938,-1.61335 -9.945636,-5.38134 -0.88949,-1.66225 -0.96874,-2.49364 -1.09806,-11.51865 l -0.13931,-9.72709 -3.14214,-1.62867 c -3.67853,-1.9067 -8.23517,-6.26627 -10.01896,-9.58565 -2.50706,-4.66529 -2.53024,-4.97607 -2.53024,-33.93851 0,-18.11932 0.1576,-27.314049 0.4951,-28.894848 0.46797,-2.19161 0.88136,-2.71122 7.54752,-9.48697 3.87883,-3.9426 7.92774,-7.73276 8.9976,-8.42257 l 1.945166,-1.254209 h 34.49717 c 34.299659,0 34.507709,0.005 36.339269,0.929409 2.57387,1.29862 14.89139,13.97717 16.28989,16.76734 l 1.08475,2.16421 V 121.55 c 0,30.47972 -0.009,30.58492 -2.75312,35.16101 -1.97755,3.29685 -6.53625,7.44567 -10.05401,9.15005 l -2.94417,1.42649 -0.003,9.29315 c -0.003,8.81108 -0.0572,9.40681 -1.02453,11.48403 -1.22281,2.62588 -3.66841,4.8949 -5.63429,5.22746 -0.78724,0.13321 -2.71114,0.29055 -4.27533,0.34973 l -2.84398,0.10766 -0.21877,8.68098 c -0.28441,11.28536 0.74232,10.35183 -11.38553,10.35183 h -9.101119 l -1.13274,-1.34617 -1.13274,-1.34617 v -8.49839 c 0,-8.20669 -0.03,-8.49839 -0.87507,-8.49839 -0.84276,0 -0.87508,0.2917 -0.87508,7.89737 0,12.04429 0.25893,11.79175 -12.09071,11.79175 h -8.83343 z m 16.38279,-14.07696 c 0.17968,-7.83022 0.33601,-9.6071 0.87507,-9.94727 0.36096,-0.22777 2.93928,-0.41715 5.72955,-0.42083 4.34096,-0.005 5.176459,0.10731 5.788239,0.78334 0.60495,0.66849 0.73321,2.20018 0.8335,9.95395 l 0.1185,9.16391 h 5.46919 5.46921 l 0.21876,-14.00115 0.21878,-14.00117 h 2.62522 2.62521 l 0.24438,3.45083 c 0.21731,3.06842 0.37757,3.56538 1.4464,4.48474 1.47585,1.26945 3.72118,1.35582 5.15195,0.19814 1.02941,-0.83291 1.03367,-0.87646 1.25169,-12.77866 l 0.21878,-11.94287 2.72072,-0.55023 c 5.17484,-1.04652 9.24697,-4.05063 11.38088,-8.39592 l 1.21218,-2.46835 0.13355,-27.34602 c 0.0868,-17.76944 -0.0234,-27.884209 -0.31457,-28.882838 -0.32257,-1.10623 -2.26934,-3.34352 -6.94819,-7.98504 l -6.50006,-6.4482 H 95.100991 c -27.89798,0 -33.31895,0.0988 -34.31378,0.62607 -1.671356,0.88567 -12.108646,11.55892 -12.951156,13.24396 -0.61906,1.238109 -0.70014,4.517059 -0.70014,28.314068 0,26.07729 0.0279,26.98846 0.89859,29.3155 1.06875,2.85649 4.10514,6.38119 6.91833,8.03095 1.11522,0.654 3.30744,1.51143 4.871636,1.90543 l 2.84399,0.71635 0.10699,11.31879 c 0.11256,11.92126 0.25271,12.81274 2.14941,13.67693 3.22181,1.46796 5.61211,-0.21023 6.0566,-4.25223 0.15014,-1.36469 0.31188,-2.77252 0.35957,-3.12852 0.12848,-0.95915 2.24963,-1.5732 3.68789,-1.06759 l 1.20323,0.42299 0.1107,13.3345 c 0.0608,7.33396 0.20461,13.58649 0.31947,13.89453 0.1581,0.42393 1.56666,0.53027 5.79607,0.43753 l 5.58728,-0.12256 z m -26.33071,-43.38205 c -2.764936,-0.71857 -4.872766,-2.42132 -6.111586,-4.93712 l -1.02925,-2.09019 v -22.75189 c 0,-22.62359 0.005,-22.76208 0.96527,-24.556399 1.16905,-2.1854 3.04065,-3.82677 5.258516,-4.61155 1.32124,-0.467529 8.13264,-0.584529 34.02959,-0.584529 32.337569,0 32.379859,0.001 34.127849,0.944389 2.39087,1.29013 3.9941,3.07917 4.79592,5.351709 0.57129,1.61919 0.6733,5.19061 0.6733,23.57001 0,14.96518 -0.15438,22.17696 -0.49944,23.32856 -0.6647,2.21863 -2.67152,4.58293 -4.90271,5.77605 l -1.81722,0.97176 -31.721399,0.0606 c -23.66189,0.0452 -32.24161,-0.0745 -33.76884,-0.47144 z M 117.27051,137.2334 c 0.67242,-0.34367 1.60691,-1.25519 2.07666,-2.02561 0.78029,-1.27972 0.8541,-2.25146 0.8541,-11.24533 0,-9.10197 -0.0665,-9.95374 -0.88249,-11.29199 -0.89187,-1.46284 -3.79725,-3.12746 -5.45853,-3.12746 -1.66129,0 -4.56667,1.66462 -5.45853,3.12746 -0.81514,1.337 -0.88261,2.19192 -0.88411,11.20435 -0.002,11.75405 0.21081,12.4486 4.26019,13.90606 1.76069,0.63369 3.52588,0.45775 5.49271,-0.54748 z m -37.193029,-0.98771 1.84258,-1.71794 0.1234,-9.98616 c 0.14235,-11.51968 -0.0316,-12.22837 -3.45103,-14.05334 -3.35828,-1.79235 -7.11648,-0.4393 -8.74601,3.14884 -0.70513,1.55263 -0.81448,2.93899 -0.81448,10.32537 0,7.47905 0.1036,8.76034 0.84002,10.38246 1.11335,2.45258 3.05723,3.61497 6.04892,3.61709 2.08893,0.002 2.49322,-0.16555 4.15658,-1.71632 z"
       id="path1" />
    <path
       style="fill:#000000;fill-opacity:1;stroke-width:0.520472"
       d="m 76.972841,206.71819 c -0.0596,-0.0716 -0.23525,-6.33675 -0.39035,-13.92264 l -0.282,-13.79253 h -2.32959 c -2.54718,0 -2.74039,0.25983 -3.40802,4.58317 -0.56324,3.64732 -3.46978,5.09463 -6.04549,3.01033 -1.21492,-0.98313 -1.23065,-1.12517 -1.40086,-12.64514 l -0.17213,-11.65082 -3.838336,-1.19149 c -4.42575,-1.37382 -7.76362,-3.97208 -10.00849,-7.7908 l -1.42308,-2.42077 -0.16126,-26.28387 c -0.0887,-14.45612 -0.012,-27.304839 0.17053,-28.552702 0.29603,-2.024245 0.99056,-2.944791 6.44236,-8.538844 5.980676,-6.13672 6.170666,-6.278534 8.937736,-6.671316 1.55495,-0.220723 16.88456,-0.418412 34.06581,-0.439311 l 31.238639,-0.03799 4.70629,4.814371 c 2.58845,2.647905 5.57004,5.810451 6.62574,7.027881 l 1.91947,2.213507 v 28.177124 c 0,28.13315 -0.002,28.18077 -1.16467,30.50915 -2.06439,4.13355 -8.05258,8.42306 -11.80975,8.45966 -2.22248,0.0216 -2.31361,0.46636 -2.61284,12.75055 -0.26513,10.8845 -0.36466,11.84544 -1.29747,12.52697 -1.39333,1.01799 -3.06941,0.92356 -4.52479,-0.25494 -0.98546,-0.79797 -1.27798,-1.64157 -1.48896,-4.29389 l -0.26256,-3.30083 -2.66246,-0.15488 c -2.61751,-0.15228 -2.66805,-0.12701 -2.99272,1.49635 -0.18164,0.90819 -0.33025,7.24308 -0.33025,14.07754 v 12.42628 h -5.14403 c -4.89457,0 -5.15924,-0.0568 -5.45785,-1.17106 -0.17261,-0.64409 -0.31703,-4.69804 -0.32094,-9.0088 -0.009,-10.17882 0.19849,-9.87817 -6.768179,-9.79613 -3.25646,0.0384 -5.51549,0.29553 -5.89058,0.67063 -0.40342,0.40341 -0.67385,3.75846 -0.80257,9.95689 l -0.19414,9.34847 h -5.40693 c -2.97381,0 -5.45568,-0.0586 -5.51528,-0.13012 z m 52.752969,-53.41544 c 1.29941,-0.82406 2.9262,-2.40499 3.61509,-3.51319 l 1.25252,-2.0149 V 124.3534 100.93213 l -1.21636,-1.956377 c -0.66899,-1.076007 -2.21195,-2.539836 -3.4288,-3.252954 l -2.21244,-1.296575 H 94.844941 c -26.44723,0 -33.22059,0.137758 -34.57383,0.703181 -2.233556,0.933238 -4.922776,4.064629 -5.309016,6.181955 -0.17084,0.93646 -0.24094,11.9094 -0.1558,24.3843 l 0.15482,22.68165 1.46596,1.92139 c 2.30942,3.02692 3.693626,3.6706 8.648196,4.02156 2.45249,0.17373 17.47058,0.35297 33.37353,0.39833 l 28.914449,0.0825 z"
       id="path21" />
    <path
       style="fill:#000000;fill-opacity:1;stroke-width:0.184015"
       d="m 74.100901,137.69854 c -2.19188,-0.49742 -3.6751,-1.89199 -4.44362,-4.17805 -0.38015,-1.13076 -0.40621,-1.58963 -0.47711,-8.40036 -0.0467,-4.48414 -5.3e-4,-7.81339 0.12234,-8.81758 0.34532,-2.82313 1.68795,-4.93646 3.79142,-5.9678 0.75425,-0.36981 1.20267,-0.45193 2.48807,-0.45564 1.41609,-0.004 1.69107,0.0561 2.83848,0.62092 0.69876,0.344 1.60956,0.96505 2.024,1.38011 1.47179,1.474 1.65224,3.1978 1.4948,14.27975 l -0.11895,8.37268 -1.23494,1.15094 c -1.84804,1.72233 -2.53282,2.08263 -4.12673,2.17129 -0.73731,0.041 -1.7983,-0.0293 -2.35776,-0.15626 z"
       id="path22" />
    <path
       style="fill:#000000;fill-opacity:1;stroke-width:0.184015"
       d="m 112.24322,137.84744 c -1.95719,-0.54914 -3.13662,-1.34054 -3.73422,-2.50565 -0.72473,-1.41298 -0.82027,-2.80395 -0.82027,-11.94212 0,-10.04779 -0.007,-9.99457 1.52547,-11.50545 0.99504,-0.98098 3.0817,-2.06622 4.27099,-2.22128 1.62432,-0.21176 4.75646,1.46268 5.75436,3.07629 0.74242,1.2005 0.86739,2.8145 0.86739,11.20248 0,8.21465 -0.12823,9.96008 -0.8182,11.13743 -1.31276,2.24005 -4.4772,3.47892 -7.04552,2.7583 z"
       id="path23" />
  </g>
</svg>
