<?xml version="1.0" encoding="UTF-8" standalone="no"?>
<!-- Created with Inkscape (http://www.inkscape.org/) -->

<svg
   width="1000"
   height="1000"
   viewBox="0 0 264.58333 264.58333"
   version="1.1"
   id="svg1"
   xml:space="preserve"
   inkscape:version="1.4.2 (f4327f4, 2025-05-13)"
   sodipodi:docname="OrangeLogo.svg"
   xmlns:inkscape="http://www.inkscape.org/namespaces/inkscape"
   xmlns:sodipodi="http://sodipodi.sourceforge.net/DTD/sodipodi-0.dtd"
   xmlns="http://www.w3.org/2000/svg"
   xmlns:svg="http://www.w3.org/2000/svg"><sodipodi:namedview
     id="namedview1"
     pagecolor="#ffffff"
     bordercolor="#000000"
     borderopacity="0.25"
     inkscape:showpageshadow="2"
     inkscape:pageopacity="0.0"
     inkscape:pagecheckerboard="0"
     inkscape:deskcolor="#d1d1d1"
     inkscape:document-units="px"
     inkscape:zoom="0.50835204"
     inkscape:cx="311.7918"
     inkscape:cy="589.15865"
     inkscape:window-width="1920"
     inkscape:window-height="991"
     inkscape:window-x="-9"
     inkscape:window-y="-9"
     inkscape:window-maximized="1"
     inkscape:current-layer="layer1" /><defs
     id="defs1" /><g
     inkscape:label="Capa 1"
     inkscape:groupmode="layer"
     id="layer1"><rect
       style="fill:#f54a00;fill-opacity:1;stroke-width:25.7381;stroke-linecap:square;paint-order:fill markers stroke"
       id="rect1"
       width="264.58334"
       height="264.58334"
       x="0"
       y="0" /><path
       style="fill:#ffffff;stroke-width:1.6927"
       d="m 109.56458,200.26886 -1.1468,-1.3629 0.13627,-7.85919 c 0.0821,-4.7328 -0.0316,-7.963 -0.28588,-8.12014 -0.23221,-0.14354 -1.44738,-0.21343 -2.70039,-0.15539 -4.55745,0.21111 -7.929381,-1.61335 -9.945639,-5.38134 -0.88949,-1.66225 -0.96874,-2.49364 -1.09806,-11.51865 l -0.13931,-9.72709 -3.142137,-1.62867 c -3.678538,-1.9067 -8.235175,-6.26627 -10.018963,-9.58565 -2.507059,-4.66529 -2.530239,-4.97607 -2.530239,-33.93851 0,-18.119319 0.1576,-27.314049 0.4951,-28.894848 0.46797,-2.19161 0.881359,-2.71122 7.547515,-9.48697 3.878837,-3.9426 7.927744,-7.73276 8.997603,-8.42257 l 1.945169,-1.254209 h 34.497171 c 34.29966,0 34.50771,0.005 36.33927,0.929409 2.57387,1.29862 14.89139,13.97717 16.28989,16.76734 l 1.08475,2.16421 V 110.3994 c 0,30.47972 -0.009,30.58492 -2.75312,35.16101 -1.97755,3.29685 -6.53625,7.44567 -10.05401,9.15005 l -2.94417,1.42649 -0.003,9.29315 c -0.003,8.81108 -0.0572,9.40681 -1.02453,11.48403 -1.22281,2.62588 -3.66841,4.8949 -5.63429,5.22746 -0.78724,0.13321 -2.71114,0.29055 -4.27533,0.34973 l -2.84398,0.10766 -0.21877,8.68098 c -0.28441,11.28536 0.74232,10.35183 -11.38553,10.35183 h -9.10112 l -1.13274,-1.34617 -1.13274,-1.34617 v -8.49839 c 0,-8.20669 -0.03,-8.49839 -0.87507,-8.49839 -0.84276,0 -0.87508,0.2917 -0.87508,7.89737 0,12.04429 0.25893,11.79175 -12.09071,11.79175 h -8.83343 z m 16.38279,-14.07696 c 0.17968,-7.83022 0.33601,-9.6071 0.87507,-9.94727 0.36096,-0.22777 2.93928,-0.41715 5.72955,-0.42083 4.34096,-0.005 5.17646,0.10731 5.78824,0.78334 0.60495,0.66849 0.73321,2.20018 0.8335,9.95395 l 0.1185,9.16391 h 5.46919 5.46921 l 0.21876,-14.00115 0.21878,-14.00117 h 2.62522 2.62521 l 0.24438,3.45083 c 0.21731,3.06842 0.37757,3.56538 1.4464,4.48474 1.47585,1.26945 3.72118,1.35582 5.15195,0.19814 1.02941,-0.83291 1.03367,-0.87646 1.25169,-12.77866 l 0.21878,-11.94287 2.72072,-0.55023 c 5.17484,-1.04652 9.24697,-4.05063 11.38088,-8.39592 l 1.21218,-2.46835 0.13355,-27.34602 c 0.0868,-17.769439 -0.0234,-27.884209 -0.31457,-28.882838 -0.32257,-1.10623 -2.26934,-3.34352 -6.94819,-7.98504 l -6.50006,-6.4482 h -33.1323 c -27.89798,0 -33.318952,0.0988 -34.313781,0.62607 -1.671359,0.88567 -12.108652,11.55892 -12.951161,13.24396 -0.61906,1.238109 -0.70014,4.517059 -0.70014,28.314068 0,26.07729 0.0279,26.98846 0.898589,29.3155 1.06875,2.85649 4.105148,6.38119 6.918336,8.03095 1.115219,0.654 3.307437,1.51143 4.871636,1.90543 l 2.843991,0.71635 0.10699,11.31879 c 0.11256,11.92126 0.25271,12.81274 2.14941,13.67693 3.22181,1.46796 5.61211,-0.21023 6.0566,-4.25223 0.15014,-1.36469 0.31188,-2.77252 0.35957,-3.12852 0.12848,-0.95915 2.24963,-1.5732 3.68789,-1.06759 l 1.20323,0.42299 0.1107,13.3345 c 0.0608,7.33396 0.20461,13.58649 0.31947,13.89453 0.1581,0.42393 1.56666,0.53027 5.79607,0.43753 l 5.58728,-0.12256 z M 99.616658,142.80985 c -2.764938,-0.71857 -4.872767,-2.42132 -6.111586,-4.93712 l -1.029249,-2.09019 v -22.75189 c 0,-22.623589 0.005,-22.762079 0.965269,-24.556399 1.169049,-2.1854 3.040648,-3.82677 5.258516,-4.61155 1.321242,-0.467529 8.132642,-0.584529 34.029592,-0.584529 32.33757,0 32.37986,0.001 34.12785,0.944389 2.39087,1.29013 3.9941,3.07917 4.79592,5.35171 0.57129,1.61919 0.6733,5.19061 0.6733,23.570009 0,14.96518 -0.15438,22.17696 -0.49944,23.32856 -0.6647,2.21863 -2.67152,4.58293 -4.90271,5.77605 l -1.81722,0.97176 -31.7214,0.0606 c -23.66189,0.0452 -32.24161,-0.0745 -33.768842,-0.47144 z M 154.95353,126.0828 c 0.67242,-0.34367 1.60691,-1.25519 2.07666,-2.02561 0.78029,-1.27972 0.8541,-2.25146 0.8541,-11.24533 0,-9.10197 -0.0665,-9.95374 -0.88249,-11.29199 -0.89187,-1.46284 -3.79725,-3.127459 -5.45853,-3.127459 -1.66129,0 -4.56667,1.664619 -5.45853,3.127459 -0.81514,1.337 -0.88261,2.19192 -0.88411,11.20435 -0.002,11.75405 0.21081,12.4486 4.26019,13.90606 1.76069,0.63369 3.52588,0.45775 5.49271,-0.54748 z m -37.19303,-0.98771 1.84258,-1.71794 0.1234,-9.98616 c 0.14235,-11.51968 -0.0316,-12.22837 -3.45103,-14.053339 -3.35828,-1.79235 -7.11648,-0.4393 -8.74601,3.148839 -0.70513,1.55263 -0.81448,2.93899 -0.81448,10.32537 0,7.47905 0.1036,8.76034 0.84002,10.38246 1.11335,2.45258 3.05723,3.61497 6.04892,3.61709 2.08893,0.002 2.49322,-0.16555 4.15658,-1.71632 z"
       id="path1"
       sodipodi:nodetypes="ccssssscsssssscscscssscsssccsscccssssccsscsscccccccsssscsscssscssssssscssssscssscssscssssssssscssssssssscssccssssssc" /><path
       style="fill:#f54a00;stroke-width:3.93428;fill-opacity:1"
       d="M 1.9671407,499.65374 V 0 H 499.65374 997.34035 V 499.65374 999.30749 H 499.65374 1.9671407 Z M 492.96547,758.52946 c 2.59662,-2.59662 5.0559,-15.43222 5.46503,-28.52354 l 0.74393,-23.8024 1.44486,23.4696 c 0.79465,12.9083 3.3323,25.74389 5.63925,28.52354 5.59502,6.74163 74.43845,7.02403 81.12968,0.3328 2.85109,-2.85109 4.72114,-16.67116 4.72114,-34.8905 v -30.16937 l 16.71456,-2.24191 c 11.31322,-1.51742 19.5771,-5.5698 25.57283,-12.54025 7.89515,-9.17868 8.85827,-14.52328 8.85827,-49.15668 0,-36.08142 0.59336,-39.0466 8.30345,-41.49373 11.79718,-3.74425 38.29154,-28.56788 45.62362,-42.74656 5.05422,-9.77373 6.57057,-32.21661 8.16832,-120.89688 2.27826,-126.44809 4.72885,-116.96547 -41.84797,-161.9316 L 636.15151,236.05689 H 499.86749 363.58348 l -33.43776,32.98926 -33.43777,32.98926 1.14872,119.77779 1.14872,119.77778 11.42042,14.96557 c 6.28124,8.23103 19.06087,19.59768 28.39919,25.25919 l 16.97876,10.29362 0.12436,38.66187 c 0.12033,37.41202 0.49613,39.03366 11.62456,50.16209 8.42394,8.42396 15.26459,11.50021 25.57284,11.50021 h 14.07261 v 30.6874 c 0,18.62225 1.85615,32.54355 4.72114,35.40853 2.98025,2.98026 17.92285,4.72114 40.5231,4.72114 22.60024,0 37.54284,-1.74088 40.5231,-4.72114 z"
       id="path2"
       transform="scale(0.26458333)" /><path
       style="fill:#f54a00;fill-opacity:1;stroke-width:0.491785"
       d="m 297.25007,330.84848 c -0.10523,-10.21069 -0.19594,-20.86285 -0.20157,-23.67148 l -0.0102,-5.10659 33.44139,-32.9907 33.44139,-32.9907 135.97861,0.003 135.9786,0.003 18.68784,18.00342 c 34.52525,33.2608 38.61162,37.74203 43.79016,48.02141 3.00677,5.96841 3.6888,8.9099 0.80775,3.48368 -3.95114,-7.44168 -15.04056,-20.11979 -35.4752,-40.55746 -20.94858,-20.95168 -25.85095,-24.76561 -33.46608,-26.0358 -6.28542,-1.04841 -47.0931,-1.43608 -153.32301,-1.45655 l -107.83289,-0.0208 -4.78592,3.15477 c -6.40025,4.2189 -12.36759,9.58405 -29.56222,26.579 -16.89812,16.70187 -28.16854,28.57275 -31.31861,32.98717 -4.41601,6.18848 -5.01204,9.75215 -5.57905,33.35678 l -0.37961,15.80341 z"
       id="path3"
       transform="scale(0.26458333)" /><path
       style="fill:#f54a00;fill-opacity:1;stroke-width:0.491785"
       d=""
       id="path4"
       transform="scale(0.26458333)" /><path
       style="fill:#f54a00;fill-opacity:1;stroke-width:0.491785"
       d=""
       id="path5"
       transform="scale(0.26458333)" /><path
       style="fill:#f54a00;fill-opacity:1;stroke-width:1.96714"
       d="m 433.345,739.15313 c -0.22523,-0.27048 -0.88914,-23.94994 -1.47535,-52.62102 l -1.06583,-52.12923 h -8.80476 c -9.62712,0 -10.35737,0.98204 -12.8807,17.32221 -2.12877,13.78515 -13.11413,19.25528 -22.84907,11.37763 -4.59183,-3.71579 -4.6513,-4.25261 -5.29459,-47.79265 l -0.65059,-44.03462 -14.50709,-4.50324 c -16.72727,-5.1924 -29.34283,-15.01259 -37.82739,-29.44556 l -5.37855,-9.14937 -0.60949,-99.3406 c -0.33522,-54.63734 -0.0452,-103.19942 0.64453,-107.91575 1.11882,-7.65069 3.74382,-11.12992 24.34907,-32.2728 22.60413,-23.1939 23.3222,-23.72989 33.78044,-25.21442 5.87695,-0.83423 63.81566,-1.5814 128.75267,-1.66039 l 118.06729,-0.1436 17.78754,18.19605 c 9.78314,10.00783 21.05212,21.96076 25.04219,26.56207 l 7.25466,8.36601 V 421.2501 c 0,106.33 -0.007,106.51001 -4.40189,115.31019 -7.80243,15.62286 -30.43495,31.83517 -44.63527,31.9735 -8.39993,0.0818 -8.74435,1.76261 -9.8753,48.19105 -1.00208,41.13826 -1.37824,44.77019 -4.90381,47.34603 -5.26615,3.84753 -11.60092,3.49063 -17.10157,-0.96353 -3.72457,-3.01596 -4.83018,-6.20436 -5.62758,-16.22891 l -0.99234,-12.47555 -10.06287,-0.5854 c -9.89293,-0.57552 -10.08396,-0.48002 -11.31106,5.65553 -0.68651,3.4325 -1.24819,27.3754 -1.24819,53.20642 v 46.96548 h -19.44198 c -18.49917,0 -19.4995,-0.21463 -20.62811,-4.42606 -0.65238,-2.43434 -1.19824,-17.75638 -1.21301,-34.04899 -0.0349,-38.47115 0.7502,-37.33483 -25.58053,-37.02477 -12.30787,0.14496 -20.84593,1.11698 -22.26361,2.53468 -1.52471,1.52469 -2.54681,14.20521 -3.03332,37.63234 l -0.73376,35.3328 h -20.43563 c -11.23959,0 -20.61991,-0.2213 -20.84515,-0.49178 z M 632.72629,537.26799 c 4.91116,-3.11455 11.05966,-9.08974 13.66333,-13.2782 l 4.73396,-7.61535 v -88.52133 -88.52134 l -4.59727,-7.39418 c -2.52848,-4.0668 -8.36015,-9.59938 -12.95924,-12.29463 l -8.36199,-4.90044 H 500.89309 c -99.95804,0 -125.55814,0.52066 -130.67276,2.65769 -8.44178,3.5272 -18.60576,15.36238 -20.06559,23.36486 -0.64567,3.5394 -0.91064,45.01193 -0.58882,92.16117 l 0.58513,85.72591 5.54062,7.26196 c 8.72854,11.44032 13.9602,13.87312 32.68614,15.1996 9.26925,0.6566 66.03051,1.33406 126.13615,1.50548 l 109.28297,0.31165 z"
       id="path21"
       transform="scale(0.26458333)" /><path
       style="fill:#f54a00;fill-opacity:1;stroke-width:0.695489"
       d="m 422.49043,478.29144 c -8.28428,-1.88 -13.89014,-7.15082 -16.79482,-15.79107 -1.43675,-4.27374 -1.53525,-6.00802 -1.80324,-31.74936 -0.17645,-16.94796 -0.002,-29.53095 0.46239,-33.32632 1.30516,-10.67007 6.37967,-18.65747 14.32978,-22.55544 2.85072,-1.39772 4.54553,-1.70809 9.40373,-1.72213 5.35217,-0.0155 6.39146,0.21188 10.7281,2.3468 2.641,1.30016 6.0834,3.64744 7.64978,5.21617 5.56266,5.57102 6.24467,12.08616 5.64964,53.97071 l -0.44956,31.64476 -4.66752,4.35003 c -6.9847,6.50957 -9.57286,7.87134 -15.59709,8.20645 -2.78668,0.15502 -6.79672,-0.11076 -8.91119,-0.5906 z"
       id="path22"
       transform="scale(0.26458333)" /><path
       style="fill:#f54a00;fill-opacity:1;stroke-width:0.695489"
       d="m 566.65035,478.85423 c -7.39724,-2.0755 -11.85493,-5.06661 -14.11357,-9.47019 -2.73915,-5.34041 -3.10025,-10.59761 -3.10025,-45.13558 0,-37.9759 -0.0267,-37.77474 5.76556,-43.48516 3.76078,-3.70765 11.64737,-7.80933 16.14235,-8.39537 6.13915,-0.80038 17.97716,5.52823 21.74874,11.6269 2.80599,4.53731 3.27832,10.6375 3.27832,42.34009 0,31.04751 -0.48464,37.64439 -3.0924,42.09421 -4.96161,8.46633 -16.92169,13.14868 -26.62875,10.4251 z"
       id="path23"
       transform="scale(0.26458333)" /></g></svg>
