<?xml version="1.0" encoding="UTF-8" standalone="no"?>
<!-- Created with Inkscape (http://www.inkscape.org/) -->

<svg
   width="1000"
   height="1000"
   viewBox="0 0 264.58333 264.58333"
   version="1.1"
   id="svg1"
   xml:space="preserve"
   inkscape:version="1.4 (86a8ad7, 2024-10-11)"
   sodipodi:docname="TinyBitLogo.svg"
   xmlns:inkscape="http://www.inkscape.org/namespaces/inkscape"
   xmlns:sodipodi="http://sodipodi.sourceforge.net/DTD/sodipodi-0.dtd"
   xmlns="http://www.w3.org/2000/svg"
   xmlns:svg="http://www.w3.org/2000/svg"><sodipodi:namedview
     id="namedview1"
     pagecolor="#ffffff"
     bordercolor="#000000"
     borderopacity="0.25"
     inkscape:showpageshadow="2"
     inkscape:pageopacity="0.0"
     inkscape:pagecheckerboard="0"
     inkscape:deskcolor="#d1d1d1"
     inkscape:document-units="px"
     inkscape:zoom="0.50835204"
     inkscape:cx="692.43353"
     inkscape:cy="541.94727"
     inkscape:window-width="1920"
     inkscape:window-height="1009"
     inkscape:window-x="-8"
     inkscape:window-y="-8"
     inkscape:window-maximized="1"
     inkscape:current-layer="layer1" /><defs
     id="defs1" /><g
     inkscape:label="Capa 1"
     inkscape:groupmode="layer"
     id="layer1"><rect
       style="fill:#252430;fill-opacity:1;stroke-width:25.7381;stroke-linecap:square;paint-order:fill markers stroke"
       id="rect1"
       width="264.58334"
       height="264.58334"
       x="0"
       y="0" /><path
       style="fill:#ffffff;stroke-width:1.6927"
       d="m 109.56458,200.26886 -1.1468,-1.3629 0.13627,-7.85919 c 0.0821,-4.7328 -0.0316,-7.963 -0.28588,-8.12014 -0.23221,-0.14354 -1.44738,-0.21343 -2.70039,-0.15539 -4.55745,0.21111 -7.929381,-1.61335 -9.945639,-5.38134 -0.88949,-1.66225 -0.96874,-2.49364 -1.09806,-11.51865 l -0.13931,-9.72709 -3.142137,-1.62867 c -3.678538,-1.9067 -8.235175,-6.26627 -10.018963,-9.58565 -2.507059,-4.66529 -2.530239,-4.97607 -2.530239,-33.93851 0,-18.119319 0.1576,-27.314049 0.4951,-28.894848 0.46797,-2.19161 0.881359,-2.71122 7.547515,-9.48697 3.878837,-3.9426 7.927744,-7.73276 8.997603,-8.42257 l 1.945169,-1.254209 h 34.497171 c 34.29966,0 34.50771,0.005 36.33927,0.929409 2.57387,1.29862 14.89139,13.97717 16.28989,16.76734 l 1.08475,2.16421 V 110.3994 c 0,30.47972 -0.009,30.58492 -2.75312,35.16101 -1.97755,3.29685 -6.53625,7.44567 -10.05401,9.15005 l -2.94417,1.42649 -0.003,9.29315 c -0.003,8.81108 -0.0572,9.40681 -1.02453,11.48403 -1.22281,2.62588 -3.66841,4.8949 -5.63429,5.22746 -0.78724,0.13321 -2.71114,0.29055 -4.27533,0.34973 l -2.84398,0.10766 -0.21877,8.68098 c -0.28441,11.28536 0.74232,10.35183 -11.38553,10.35183 h -9.10112 l -1.13274,-1.34617 -1.13274,-1.34617 v -8.49839 c 0,-8.20669 -0.03,-8.49839 -0.87507,-8.49839 -0.84276,0 -0.87508,0.2917 -0.87508,7.89737 0,12.04429 0.25893,11.79175 -12.09071,11.79175 h -8.83343 z m 16.38279,-14.07696 c 0.17968,-7.83022 0.33601,-9.6071 0.87507,-9.94727 0.36096,-0.22777 2.93928,-0.41715 5.72955,-0.42083 4.34096,-0.005 5.17646,0.10731 5.78824,0.78334 0.60495,0.66849 0.73321,2.20018 0.8335,9.95395 l 0.1185,9.16391 h 5.46919 5.46921 l 0.21876,-14.00115 0.21878,-14.00117 h 2.62522 2.62521 l 0.24438,3.45083 c 0.21731,3.06842 0.37757,3.56538 1.4464,4.48474 1.47585,1.26945 3.72118,1.35582 5.15195,0.19814 1.02941,-0.83291 1.03367,-0.87646 1.25169,-12.77866 l 0.21878,-11.94287 2.72072,-0.55023 c 5.17484,-1.04652 9.24697,-4.05063 11.38088,-8.39592 l 1.21218,-2.46835 0.13355,-27.34602 c 0.0868,-17.769439 -0.0234,-27.884209 -0.31457,-28.882838 -0.32257,-1.10623 -2.26934,-3.34352 -6.94819,-7.98504 l -6.50006,-6.4482 h -33.1323 c -27.89798,0 -33.318952,0.0988 -34.313781,0.62607 -1.671359,0.88567 -12.108652,11.55892 -12.951161,13.24396 -0.61906,1.238109 -0.70014,4.517059 -0.70014,28.314068 0,26.07729 0.0279,26.98846 0.898589,29.3155 1.06875,2.85649 4.105148,6.38119 6.918336,8.03095 1.115219,0.654 3.307437,1.51143 4.871636,1.90543 l 2.843991,0.71635 0.10699,11.31879 c 0.11256,11.92126 0.25271,12.81274 2.14941,13.67693 3.22181,1.46796 5.61211,-0.21023 6.0566,-4.25223 0.15014,-1.36469 0.31188,-2.77252 0.35957,-3.12852 0.12848,-0.95915 2.24963,-1.5732 3.68789,-1.06759 l 1.20323,0.42299 0.1107,13.3345 c 0.0608,7.33396 0.20461,13.58649 0.31947,13.89453 0.1581,0.42393 1.56666,0.53027 5.79607,0.43753 l 5.58728,-0.12256 z M 99.616658,142.80985 c -2.764938,-0.71857 -4.872767,-2.42132 -6.111586,-4.93712 l -1.029249,-2.09019 v -22.75189 c 0,-22.623589 0.005,-22.762079 0.965269,-24.556399 1.169049,-2.1854 3.040648,-3.82677 5.258516,-4.61155 1.321242,-0.467529 8.132642,-0.584529 34.029592,-0.584529 32.33757,0 32.37986,0.001 34.12785,0.944389 2.39087,1.29013 3.9941,3.07917 4.79592,5.35171 0.57129,1.61919 0.6733,5.19061 0.6733,23.570009 0,14.96518 -0.15438,22.17696 -0.49944,23.32856 -0.6647,2.21863 -2.67152,4.58293 -4.90271,5.77605 l -1.81722,0.97176 -31.7214,0.0606 c -23.66189,0.0452 -32.24161,-0.0745 -33.768842,-0.47144 z M 154.95353,126.0828 c 0.67242,-0.34367 1.60691,-1.25519 2.07666,-2.02561 0.78029,-1.27972 0.8541,-2.25146 0.8541,-11.24533 0,-9.10197 -0.0665,-9.95374 -0.88249,-11.29199 -0.89187,-1.46284 -3.79725,-3.127459 -5.45853,-3.127459 -1.66129,0 -4.56667,1.664619 -5.45853,3.127459 -0.81514,1.337 -0.88261,2.19192 -0.88411,11.20435 -0.002,11.75405 0.21081,12.4486 4.26019,13.90606 1.76069,0.63369 3.52588,0.45775 5.49271,-0.54748 z m -37.19303,-0.98771 1.84258,-1.71794 0.1234,-9.98616 c 0.14235,-11.51968 -0.0316,-12.22837 -3.45103,-14.053339 -3.35828,-1.79235 -7.11648,-0.4393 -8.74601,3.148839 -0.70513,1.55263 -0.81448,2.93899 -0.81448,10.32537 0,7.47905 0.1036,8.76034 0.84002,10.38246 1.11335,2.45258 3.05723,3.61497 6.04892,3.61709 2.08893,0.002 2.49322,-0.16555 4.15658,-1.71632 z"
       id="path1"
       sodipodi:nodetypes="ccssssscsssssscscscssscsssccsscccssssccsscsscccccccsssscsscssscssssssscssssscssscssscssssssssscssssssssscssccssssssc" /></g></svg>
